<svg xmlns="http://www.w3.org/2000/svg" viewBox="0 0 200 200" width="200" height="200"><defs><radialGradient id="g5004" cx="50%" cy="26%"><stop offset="0%" stop-color="#7E9BD4" stop-opacity="0.62"/><stop offset="100%" stop-color="#7E9BD4" stop-opacity="0.20"/></radialGradient></defs><rect width="200" height="200" fill="#16242F"/><rect width="200" height="200" fill="url(#g5004)"/><path d="M100 138 C60 138 34 160 30 200 H170 C166 160 140 138 100 138 Z" fill="#2E4A6B"/><path d="M100 138 L86 200 H114 Z" fill="#243A54"/><rect x="88" y="118" width="24" height="26" rx="10" fill="#8A5533"/><rect x="88" y="118" width="24" height="10" rx="5" fill="#000" opacity="0.14"/><ellipse cx="60" cy="92" rx="6" ry="9" fill="#8A5533"/><ellipse cx="140" cy="92" rx="6" ry="9" fill="#8A5533"/><ellipse cx="100" cy="88" rx="40" ry="46" fill="#8A5533"/><path d="M58 86 C56 50 78 38 100 38 C124 38 144 50 142 86 C138 66 130 58 118 60 C108 50 92 52 82 60 C70 58 62 68 58 86 Z" fill="#8B6239"/><path d="M76 80 Q85 75 94 79" stroke="#8B6239" stroke-width="4" fill="none" stroke-linecap="round"/><path d="M106 79 Q115 75 124 80" stroke="#8B6239" stroke-width="4" fill="none" stroke-linecap="round"/><ellipse cx="85" cy="92" rx="6" ry="5" fill="#FBF7F0"/><ellipse cx="115" cy="92" rx="6" ry="5" fill="#FBF7F0"/><circle cx="86" cy="92" r="2.9" fill="#2A2018"/><circle cx="116" cy="92" r="2.9" fill="#2A2018"/><path d="M100 96 Q97 105 102 106" stroke="#000" stroke-opacity="0.2" stroke-width="2.6" fill="none" stroke-linecap="round"/><path d="M90 115 Q100 122 110 115" stroke="#8A4A44" stroke-width="3.2" fill="none" stroke-linecap="round"/><path d="M64 96 C64 122 80 134 100 134 C120 134 136 122 136 96 C136 118 122 124 100 124 C78 124 64 118 64 96 Z" fill="#8B6239" opacity="0.75"/><path d="M88 110 Q100 106 112 110 Q100 114 88 110 Z" fill="#8B6239"/></svg>