<svg xmlns="http://www.w3.org/2000/svg" viewBox="0 0 200 200" width="200" height="200"><defs><radialGradient id="g1009" cx="50%" cy="26%"><stop offset="0%" stop-color="#2FB2A6" stop-opacity="0.62"/><stop offset="100%" stop-color="#2FB2A6" stop-opacity="0.20"/></radialGradient></defs><rect width="200" height="200" fill="#16242F"/><rect width="200" height="200" fill="url(#g1009)"/><path d="M100 138 C60 138 34 160 30 200 H170 C166 160 140 138 100 138 Z" fill="#6B5A3F"/><path d="M100 138 L86 200 H114 Z" fill="#544731"/><rect x="88" y="118" width="24" height="26" rx="10" fill="#D69C6E"/><rect x="88" y="118" width="24" height="10" rx="5" fill="#000" opacity="0.14"/><ellipse cx="60" cy="92" rx="6" ry="9" fill="#D69C6E"/><ellipse cx="140" cy="92" rx="6" ry="9" fill="#D69C6E"/><ellipse cx="100" cy="88" rx="40" ry="46" fill="#D69C6E"/><path d="M60 82 C58 48 80 36 100 36 C122 36 142 48 140 82 C136 64 124 56 100 56 C76 56 64 64 60 82 Z" fill="#2B2119"/><circle cx="68" cy="66" r="10" fill="#2B2119"/><circle cx="84" cy="54" r="11" fill="#2B2119"/><circle cx="100" cy="50" r="11" fill="#2B2119"/><circle cx="116" cy="54" r="11" fill="#2B2119"/><circle cx="132" cy="66" r="10" fill="#2B2119"/><path d="M76 80 Q85 75 94 79" stroke="#2B2119" stroke-width="4" fill="none" stroke-linecap="round"/><path d="M106 79 Q115 75 124 80" stroke="#2B2119" stroke-width="4" fill="none" stroke-linecap="round"/><ellipse cx="85" cy="92" rx="6" ry="5" fill="#FBF7F0"/><ellipse cx="115" cy="92" rx="6" ry="5" fill="#FBF7F0"/><circle cx="86" cy="92" r="2.9" fill="#2A2018"/><circle cx="116" cy="92" r="2.9" fill="#2A2018"/><path d="M100 96 Q97 105 102 106" stroke="#000" stroke-opacity="0.2" stroke-width="2.6" fill="none" stroke-linecap="round"/><path d="M90 115 Q100 122 110 115" stroke="#8A4A44" stroke-width="3.2" fill="none" stroke-linecap="round"/><path d="M62 92 C62 126 80 142 100 142 C120 142 138 126 138 92 C138 116 124 112 100 112 C76 112 62 116 62 92 Z" fill="#2B2119"/><ellipse cx="100" cy="116" rx="11" ry="7" fill="#D69C6E" opacity="0.9"/><path d="M90 115 Q100 121 110 115" stroke="#8A4A44" stroke-width="3" fill="none" stroke-linecap="round"/><path d="M52 62 H148 C148 66 145 69 140 69 H60 C55 69 52 66 52 62 Z" fill="#F0A63A"/><path d="M64 62 C64 34 80 22 100 22 C120 22 136 34 136 62 Z" fill="#F0A63A"/><path d="M96 24 C97 40 97 52 96 62 H104 C103 52 103 40 104 24 Z" fill="#000" opacity="0.13"/></svg>