<svg xmlns="http://www.w3.org/2000/svg" viewBox="0 0 520 100" fill="none">
  <g transform="translate(2,10) scale(0.80)">
  <path d="M8 70 C8 34 33 12 61 12 C85 12 97 31 97 52 C97 67 86 76 73 73 C82 67 85 55 76 47 C64 37 48 43 43 60 C39 71 22 76 8 70 Z" fill="#F0A63A"/>
  <path d="M10 87 C22 81 32 93 44 87 C56 81 64 93 76 87" stroke="#F0A63A" stroke-width="7" fill="none" stroke-linecap="round" opacity="0.5"/>
</g>
  <text x="100" y="58" font-family="Archivo, Arial Black, sans-serif" font-size="40" font-weight="800" letter-spacing="0.5" fill="#EDE7DA">CONTRATÁ</text>
  <rect x="372" y="26" width="76" height="40" rx="8" fill="#F0A63A"/>
  <text x="384" y="58" font-family="Archivo, Arial Black, sans-serif" font-size="40" font-weight="800" letter-spacing="0.5" fill="#0B1620">YA</text>
  <text x="102" y="80" font-family="IBM Plex Mono, monospace" font-size="12.5" letter-spacing="3" fill="#7E8D98">PARTIDO DE LA COSTA</text>
</svg>